<svg width="74" height="70" viewBox="0 0 74 70" fill="none" xmlns="http://www.w3.org/2000/svg">
<path d="M39.011 5.98099C39.011 2.28765 37.2847 0.440979 33.832 0.440979H26.263C22.8097 0.440979 21.0833 2.28765 21.084 5.98099V32.781H25.409V20.934L39.009 20.943L39.011 5.98099ZM34.687 17.015H25.408V6.25497C25.3722 5.99881 25.3964 5.73785 25.4786 5.49261C25.5608 5.24738 25.6988 5.02453 25.8817 4.84164C26.0646 4.65875 26.2874 4.52079 26.5326 4.4386C26.7778 4.35641 27.0388 4.33224 27.295 4.36798H32.795C33.0512 4.33224 33.3121 4.35641 33.5574 4.4386C33.8026 4.52079 34.0254 4.65875 34.2083 4.84164C34.3912 5.02453 34.5292 5.24738 34.6113 5.49261C34.6935 5.73785 34.7177 5.99881 34.682 6.25497L34.687 17.015Z" fill="#FF5E00"/>
<path d="M21.574 32.288V5.97801C21.4647 4.60359 21.8799 3.23877 22.736 2.158C23.2062 1.71957 23.7625 1.38388 24.3696 1.17228C24.9767 0.960685 25.6212 0.877827 26.262 0.928994H33.831C34.4719 0.877827 35.1163 0.960685 35.7234 1.17228C36.3304 1.38388 36.8868 1.71957 37.357 2.158C38.2134 3.23863 38.629 4.60346 38.52 5.97801V20.449L24.92 20.44V32.286L21.574 32.288ZM27.298 3.869C26.976 3.83172 26.6498 3.86774 26.3437 3.97431C26.0376 4.08089 25.7596 4.2553 25.5304 4.48448C25.3013 4.71365 25.1269 4.99165 25.0203 5.29774C24.9137 5.60382 24.8777 5.93007 24.915 6.25202V17.508H35.178V6.249C35.2153 5.92704 35.1793 5.60083 35.0727 5.29475C34.9661 4.98866 34.7917 4.71063 34.5625 4.48145C34.3334 4.25228 34.0553 4.0779 33.7492 3.97132C33.4432 3.86475 33.117 3.82873 32.795 3.86601L27.298 3.869Z" fill="#FF5E00"/>
<path d="M49.053 0.440979V26.741C49.053 28.1523 48.4676 28.8577 47.297 28.857H40.924C39.666 28.857 39.037 28.1516 39.037 26.741L39.031 22.478H34.707L34.713 26.605C34.713 30.719 36.4393 32.776 39.892 32.776H48.16C51.6427 32.776 53.384 30.734 53.384 26.65V0.440979H49.053Z" fill="url(#paint0_linear_1_175)"/>
<path d="M39.885 32.288C39.2361 32.3409 38.5837 32.2454 37.9772 32.0085C37.3708 31.7717 36.8262 31.3997 36.385 30.921C35.5043 29.6629 35.0873 28.1382 35.205 26.607L35.2 22.972H38.542L38.547 26.747C38.547 28.428 39.394 29.353 40.93 29.353H47.303C48.142 29.353 49.55 29.014 49.55 26.747V0.934998H52.891V26.656C53.0084 28.1764 52.5875 29.6896 51.702 30.931C51.2515 31.4098 50.6988 31.7807 50.0849 32.016C49.4711 32.2513 48.812 32.345 48.157 32.29L39.885 32.288Z" fill="url(#paint1_linear_1_175)"/>
<path d="M6.992 60.721C5.91867 60.721 4.95267 60.537 4.094 60.169C3.23533 59.7857 2.56067 59.249 2.07 58.559C1.57933 57.869 1.334 57.064 1.334 56.144H4.14C4.20133 56.834 4.46967 57.4013 4.945 57.846C5.43567 58.2907 6.118 58.513 6.992 58.513C7.89667 58.513 8.602 58.2983 9.108 57.869C9.614 57.4243 9.867 56.857 9.867 56.167C9.867 55.6303 9.706 55.1933 9.384 54.856C9.07733 54.5187 8.68633 54.258 8.211 54.074C7.751 53.89 7.107 53.6907 6.279 53.476C5.23633 53.2 4.38533 52.924 3.726 52.648C3.082 52.3567 2.53 51.912 2.07 51.314C1.61 50.716 1.38 49.9187 1.38 48.922C1.38 48.002 1.61 47.197 2.07 46.507C2.53 45.817 3.174 45.288 4.002 44.92C4.83 44.552 5.78833 44.368 6.877 44.368C8.42567 44.368 9.69067 44.759 10.672 45.541C11.6687 46.3077 12.2207 47.3657 12.328 48.715H9.43C9.384 48.1323 9.108 47.634 8.602 47.22C8.096 46.806 7.429 46.599 6.601 46.599C5.84967 46.599 5.23633 46.7907 4.761 47.174C4.28567 47.5573 4.048 48.1093 4.048 48.83C4.048 49.3207 4.19367 49.727 4.485 50.049C4.79167 50.3557 5.175 50.601 5.635 50.785C6.095 50.969 6.72367 51.1683 7.521 51.383C8.579 51.6743 9.43767 51.9657 10.097 52.257C10.7717 52.5483 11.339 53.0007 11.799 53.614C12.2743 54.212 12.512 55.017 12.512 56.029C12.512 56.8417 12.2897 57.6083 11.845 58.329C11.4157 59.0497 10.7793 59.6323 9.936 60.077C9.108 60.5063 8.12667 60.721 6.992 60.721ZM18.6649 50.026V57.041C18.6649 57.5163 18.7722 57.8613 18.9869 58.076C19.2169 58.2753 19.6002 58.375 20.1369 58.375H21.7469V60.56H19.6769C18.4962 60.56 17.5915 60.284 16.9629 59.732C16.3342 59.18 16.0199 58.283 16.0199 57.041V50.026H14.5249V47.887H16.0199V44.736H18.6649V47.887H21.7469V50.026H18.6649ZM35.6405 47.887V60.56H33.0185V59.065C32.6045 59.5863 32.0601 60.0003 31.3855 60.307C30.7261 60.5983 30.0208 60.744 29.2695 60.744C28.2728 60.744 27.3758 60.537 26.5785 60.123C25.7965 59.709 25.1755 59.0957 24.7155 58.283C24.2708 57.4703 24.0485 56.489 24.0485 55.339V47.887H26.6475V54.948C26.6475 56.0827 26.9311 56.9567 27.4985 57.57C28.0658 58.168 28.8401 58.467 29.8215 58.467C30.8028 58.467 31.5771 58.168 32.1445 57.57C32.7271 56.9567 33.0185 56.0827 33.0185 54.948V47.887H35.6405ZM38.226 54.166C38.226 52.8933 38.4867 51.7663 39.008 50.785C39.5447 49.8037 40.2653 49.0447 41.17 48.508C42.09 47.956 43.1097 47.68 44.229 47.68C45.057 47.68 45.8697 47.864 46.667 48.232C47.4797 48.5847 48.1237 49.06 48.599 49.658V43.54H51.244V60.56H48.599V58.651C48.1697 59.2643 47.5717 59.7703 46.805 60.169C46.0537 60.5677 45.1873 60.767 44.206 60.767C43.102 60.767 42.09 60.491 41.17 59.939C40.2653 59.3717 39.5447 58.5897 39.008 57.593C38.4867 56.581 38.226 55.4387 38.226 54.166ZM48.599 54.212C48.599 53.338 48.415 52.579 48.047 51.935C47.6943 51.291 47.2267 50.8003 46.644 50.463C46.0613 50.1257 45.4327 49.957 44.758 49.957C44.0833 49.957 43.4547 50.1257 42.872 50.463C42.2893 50.785 41.814 51.268 41.446 51.912C41.0933 52.5407 40.917 53.292 40.917 54.166C40.917 55.04 41.0933 55.8067 41.446 56.466C41.814 57.1253 42.2893 57.6313 42.872 57.984C43.47 58.3213 44.0987 58.49 44.758 58.49C45.4327 58.49 46.0613 58.3213 46.644 57.984C47.2267 57.6467 47.6943 57.156 48.047 56.512C48.415 55.8527 48.599 55.086 48.599 54.212ZM56.0219 46.208C55.5466 46.208 55.1479 46.047 54.8259 45.725C54.5039 45.403 54.3429 45.0043 54.3429 44.529C54.3429 44.0537 54.5039 43.655 54.8259 43.333C55.1479 43.011 55.5466 42.85 56.0219 42.85C56.4819 42.85 56.8729 43.011 57.1949 43.333C57.5169 43.655 57.6779 44.0537 57.6779 44.529C57.6779 45.0043 57.5169 45.403 57.1949 45.725C56.8729 46.047 56.4819 46.208 56.0219 46.208ZM57.3099 47.887V60.56H54.6879V47.887H57.3099ZM66.2493 60.767C65.0533 60.767 63.9723 60.4987 63.0063 59.962C62.0403 59.41 61.2813 58.6433 60.7293 57.662C60.1773 56.6653 59.9013 55.5153 59.9013 54.212C59.9013 52.924 60.185 51.7817 60.7523 50.785C61.3197 49.7883 62.094 49.0217 63.0753 48.485C64.0567 47.9483 65.153 47.68 66.3643 47.68C67.5757 47.68 68.672 47.9483 69.6533 48.485C70.6347 49.0217 71.409 49.7883 71.9763 50.785C72.5437 51.7817 72.8273 52.924 72.8273 54.212C72.8273 55.5 72.536 56.6423 71.9533 57.639C71.3707 58.6357 70.5733 59.41 69.5613 59.962C68.5647 60.4987 67.4607 60.767 66.2493 60.767ZM66.2493 58.49C66.924 58.49 67.5527 58.329 68.1353 58.007C68.7333 57.685 69.2163 57.202 69.5843 56.558C69.9523 55.914 70.1363 55.132 70.1363 54.212C70.1363 53.292 69.96 52.5177 69.6073 51.889C69.2547 51.245 68.787 50.762 68.2043 50.44C67.6217 50.118 66.993 49.957 66.3183 49.957C65.6437 49.957 65.015 50.118 64.4323 50.44C63.865 50.762 63.4127 51.245 63.0753 51.889C62.738 52.5177 62.5693 53.292 62.5693 54.212C62.5693 55.5767 62.9143 56.6347 63.6043 57.386C64.3097 58.122 65.1913 58.49 66.2493 58.49Z" fill="black"/>
<defs>
<linearGradient id="paint0_linear_1_175" x1="63.7684" y1="-6.41404" x2="20.484" y2="7.08346" gradientUnits="userSpaceOnUse">
<stop/>
<stop offset="0.5"/>
<stop offset="1"/>
</linearGradient>
<linearGradient id="paint1_linear_1_175" x1="62.7653" y1="-5.71551" x2="21.53" y2="6.8627" gradientUnits="userSpaceOnUse">
<stop/>
<stop offset="0.5"/>
<stop offset="1"/>
</linearGradient>
</defs>
</svg>
